<svg width="60" height="60" viewBox="0 0 60 60" fill="none" xmlns="http://www.w3.org/2000/svg">
<path d="M60 30C60 46.5685 46.5685 60 30 60C13.4315 60 0 46.5685 0 30C0 13.4315 13.4315 0 30 0C46.5685 0 60 13.4315 60 30Z" fill="#B8BB19"/>
<path d="M12 19C20 28.2 15.3334 33.5 12 35L36 37.5M12 19C9.33338 23.1667 3.90005 32.7 3.50005 37.5C3.10005 42.3 13 46.8333 18 48.5M12 19L36 37.5M12 19L26.5 13.5M36 37.5L23 13.5C22.8334 8.66667 24.4 1 32 9C41.5 19 30 36 43.5 15.5M36 37.5V52.5L18 48.5M36 37.5L43.5 15.5M43.5 15.5C54.3 -0.9 48 27.3333 43.5 43.5L18 48.5" stroke="#FF0000"/>
</svg>
