<svg width="17" height="18" viewBox="0 0 17 18" fill="none" xmlns="http://www.w3.org/2000/svg">
<path d="M6.375 6.75H7.4375V13.5H6.375V6.75ZM9.5625 6.75H10.625V13.5H9.5625V6.75Z" fill="#FF5959"/>
<path d="M2.125 3.375V4.5H3.1875V15.75C3.1875 16.0484 3.29944 16.3345 3.4987 16.5455C3.69796 16.7565 3.96821 16.875 4.25 16.875H12.75C13.0318 16.875 13.302 16.7565 13.5013 16.5455C13.7006 16.3345 13.8125 16.0484 13.8125 15.75V4.5H14.875V3.375H2.125ZM4.25 15.75V4.5H12.75V15.75H4.25ZM6.375 1.125H10.625V2.25H6.375V1.125Z" fill="#FF5959"/>
</svg>
