<svg width="41" height="39" viewBox="0 0 41 39" fill="none" xmlns="http://www.w3.org/2000/svg">
<path fill-rule="evenodd" clip-rule="evenodd" d="M8.07822 2.6001C7.36407 2.6001 6.67916 2.87403 6.17418 3.36162C5.66919 3.84921 5.3855 4.51053 5.3855 5.2001V33.8001C5.3855 34.4897 5.66919 35.151 6.17418 35.6386C6.67916 36.1262 7.36407 36.4001 8.07822 36.4001H28.2736C28.6307 36.4001 28.9732 36.2631 29.2256 36.0193C29.4781 35.7755 29.62 35.4449 29.62 35.1001C29.62 34.7553 29.4781 34.4247 29.2256 34.1809C28.9732 33.9371 28.6307 33.8001 28.2736 33.8001H8.07822V5.2001H28.2736C28.6307 5.2001 28.9732 5.06313 29.2256 4.81934C29.4781 4.57554 29.62 4.24488 29.62 3.9001C29.62 3.55532 29.4781 3.22466 29.2256 2.98086C28.9732 2.73706 28.6307 2.6001 28.2736 2.6001H8.07822ZM33.9391 12.7297C33.6863 12.4856 33.3434 12.3485 32.9859 12.3485C32.6284 12.3485 32.2855 12.4856 32.0327 12.7297C31.7799 12.9738 31.6378 13.3049 31.6378 13.6501C31.6378 13.9953 31.7799 14.3264 32.0327 14.5705L35.7944 18.2001H17.5027C17.1457 18.2001 16.8032 18.3371 16.5507 18.5809C16.2982 18.8247 16.1564 19.1553 16.1564 19.5001C16.1564 19.8449 16.2982 20.1755 16.5507 20.4193C16.8032 20.6631 17.1457 20.8001 17.5027 20.8001H35.7944L32.0327 24.4297C31.7799 24.6738 31.6378 25.0049 31.6378 25.3501C31.6378 25.6953 31.7799 26.0264 32.0327 26.2705C32.2855 26.5146 32.6284 26.6517 32.9859 26.6517C33.3434 26.6517 33.6863 26.5146 33.9391 26.2705L39.9977 20.4205C40.1231 20.2997 40.2226 20.1563 40.2905 19.9983C40.3583 19.8404 40.3933 19.6711 40.3933 19.5001C40.3933 19.3291 40.3583 19.1598 40.2905 19.0019C40.2226 18.8439 40.1231 18.7005 39.9977 18.5797L33.9391 12.7297V12.7297Z" fill="black"/>
</svg>
