<svg width="60" height="61" viewBox="0 0 60 61" fill="none" xmlns="http://www.w3.org/2000/svg">
<path d="M60 30C60 46.5685 46.5685 60 30 60C13.4315 60 0 46.5685 0 30C0 13.4315 13.4315 0 30 0C46.5685 0 60 13.4315 60 30Z" fill="#FF0000" fill-opacity="0.7"/>
<path d="M13.815 33.7638C13.815 36.0123 13.9444 37.3889 14.7168 39.4853C15.2614 40.9635 17.2827 42.0332 18.4482 43.0146C21.8416 45.8722 26.1912 45.7976 30.3887 45.7976C31.6824 45.7976 33.2762 46.0727 34.5243 45.7354C35.533 45.4628 38.0096 44.9203 38.4423 43.8386C38.6601 43.294 39.5742 42.5018 39.9815 42.004C40.5067 41.3621 41.0586 40.6405 41.4585 39.9206C42.3606 38.2968 43.1999 36.1823 43.1999 34.2924C43.1999 31.9286 43.7666 28.9766 42.2048 27.0473C41.5388 26.2246 41.0069 25.0233 40.3391 24.1243C39.8527 23.4695 38.5749 22.3262 38.7533 21.4346C39.2319 19.0415 41.2152 16.7963 42.2048 14.547C42.7619 13.281 43.2511 12.3655 43.4953 11.2665C43.6217 10.6974 40.8801 11.2758 40.4013 11.5153C39.1204 12.1557 37.8068 12.655 36.39 12.9923C35.2238 13.27 34.3086 14.3222 33.1251 14.4538C32.552 14.5174 31.1008 17.0979 30.6219 17.6565C29.8356 18.5739 28.6523 17.755 27.7612 17.5322C26.2963 17.166 24.9277 16.2983 23.3301 16.7548C22.5673 16.9727 21.9699 18.6832 21.5266 17.7498C20.9429 16.521 19.4876 15.7546 18.6658 14.6714C18.1839 14.0362 18.4681 13.5984 18.2772 12.9301C18.2231 12.7408 15.9719 12.0968 15.6185 12.3859C14.9905 12.8998 14.9344 13.3405 14.9344 14.1117C14.9344 14.8749 14.4814 15.1778 14.3747 15.853C14.2242 16.8064 13.815 17.4885 13.815 18.5894C13.815 19.6292 13.7565 20.6931 13.8306 21.73C13.9205 22.9895 14.9344 23.4637 14.9344 24.6685C14.9344 25.7706 14.0776 26.3207 13.473 27.1716C12.5537 28.4654 11.5762 30.0463 11.5762 31.6804C11.5762 33.4149 13.7831 35.949 15.2143 36.5623" stroke="white" stroke-width="3" stroke-linecap="round"/>
<path d="M22.2106 29.0063C21.1217 29.2558 20.2516 29.6619 20.2516 30.9031C20.2516 31.3766 20.6798 31.8048 21.1534 31.8048C23.0046 31.8048 23.1039 29.7804 23.0502 28.3844C22.9904 26.83 20.2292 27.6197 19.8163 28.6642C18.6563 31.5982 22.7278 30.6854 24.4495 30.6854" stroke="white" stroke-width="3" stroke-linecap="round"/>
<path d="M32.2856 27.0473C32.2302 27.3449 31.61 29.9842 32.1767 30.1101C32.8632 30.2627 33.6358 30.0772 34.2135 29.7059C35.4902 28.8851 34.4824 26.4171 33.1251 26.2232C31.3907 25.9755 29.7642 29.4362 31.1661 30.3433C31.9463 30.8482 33.021 30.7169 33.9025 30.6854C34.5167 30.6635 34.2445 29.4343 34.2445 29.0063" stroke="white" stroke-width="3" stroke-linecap="round"/>
<path d="M24.4495 37.9616C25.8209 39.2524 27.9489 39.4973 28.6473 37.4019" stroke="white" stroke-width="3" stroke-linecap="round"/>
<path d="M20.8115 48.0364C18.7936 48.5286 17.9552 51.1425 17.3444 53.0427C16.6781 55.1156 17.4007 55.8724 19.4122 55.8724" stroke="white" stroke-width="3" stroke-linecap="round"/>
<path d="M36.2034 46.917C38.0179 47.8242 38.9715 47.9318 39.2818 49.871C39.426 50.7723 39.5616 51.6037 39.5616 52.5141C39.5616 53.7345 39.5019 55.5925 37.8825 55.5925" stroke="white" stroke-width="3" stroke-linecap="round"/>
<path d="M40.6811 49.7156C46.0989 46.4397 46.6023 40.6126 47.8174 35.0231C48.0349 34.0225 47.5727 33.2041 48.7658 33.2041C49.5904 33.2041 51.3985 32.8297 51.9064 33.655C53.2271 35.8011 54.1234 37.6699 53.8032 40.2316C53.646 41.4893 53.3699 43.343 52.9481 44.5382C52.7065 45.2227 51.9758 45.9467 51.5332 46.5128C50.986 47.2128 50.8249 48.2231 50.1961 48.8138C49.2974 49.6581 48.7016 50.3428 47.693 51.0993C47.1315 51.5204 46.7149 51.3933 46.216 51.8922C45.6449 52.4632 44.7544 52.4288 44.3347 53.1982C44.0783 53.6684 43.3927 54.2989 42.9199 54.5353C41.3135 55.3385 39.9091 55.3127 38.1624 55.3127" stroke="white" stroke-width="3" stroke-linecap="round"/>
<path d="M22.7704 56.712C22.7162 57.7691 22.6514 58.0215 21.7753 57.4582C21.2603 57.1271 22.9976 57.5515 23.6099 57.5515C24.5381 57.5515 25.4822 57.5001 26.4085 57.5515C27.1188 57.591 27.8078 58.0626 27.8078 58.8109C27.8078 59.7153 31.203 58.2538 31.7258 58.1112" stroke="white" stroke-width="3" stroke-linecap="round"/>
<path d="M30.6064 58.9508C31.915 57.6819 33.8065 56.2739 35.3484 57.8158C36.3346 58.802 37.0069 59.2307 38.4424 59.2307" stroke="white" stroke-width="3" stroke-linecap="round"/>
</svg>
